<svg width="24" height="25" viewBox="0 0 24 25" fill="none" xmlns="http://www.w3.org/2000/svg">
<path fill-rule="evenodd" clip-rule="evenodd" d="M24 12C24 18.6274 18.6274 24 12 24C10.8086 24 9.65779 23.8264 8.57143 23.5031C8.00032 23.3331 6.71792 23.7614 5.40017 24.2016C3.86035 24.7159 2.27224 25.2463 1.71429 24.8571C1.26911 24.5466 1.74491 23.418 2.22392 22.2818C2.68039 21.1991 3.13977 20.1094 2.8078 19.7143C1.05545 17.6284 0 14.9375 0 12C0 5.37258 5.37258 0 12 0C18.6274 0 24 5.37258 24 12ZM10.2845 12.8571C10.2845 14.2773 9.13319 15.4286 7.71303 15.4286C6.29287 15.4286 5.1416 14.2773 5.1416 12.8571C5.1416 11.437 6.29287 10.2857 7.71303 10.2857C9.13319 10.2857 10.2845 11.437 10.2845 12.8571ZM16.2853 15.4286C17.7055 15.4286 18.8567 14.2773 18.8567 12.8571C18.8567 11.437 17.7055 10.2857 16.2853 10.2857C14.8651 10.2857 13.7139 11.437 13.7139 12.8571C13.7139 14.2773 14.8651 15.4286 16.2853 15.4286Z" fill="white"/>
</svg>
