<svg width="28" height="28" viewBox="0 0 28 28" fill="none" xmlns="http://www.w3.org/2000/svg">
<path fill-rule="evenodd" clip-rule="evenodd" d="M14 28C21.732 28 28 21.732 28 14C28 6.26801 21.732 0 14 0C6.26801 0 0 6.26801 0 14C0 21.732 6.26801 28 14 28ZM13.6982 14.9008V24.7959C10.9656 24.721 8.48643 23.6311 6.62428 21.8896L13.6982 14.9008ZM12.6811 14.5L5.9261 21.1736C4.33319 19.3822 3.3275 17.057 3.21098 14.5H12.6811ZM12.8839 13.5H3.21098C3.3298 10.8925 4.37323 8.52611 6.0211 6.72092L12.8839 13.5ZM13.6982 12.8988L6.72858 6.01415C8.57852 4.32882 11.0163 3.2776 13.6982 3.20412V12.8988ZM14.6982 24.7778C17.2741 24.6133 19.6044 23.5459 21.376 21.8886L14.6982 15.2922V24.7778ZM15.3192 14.5L22.0741 21.1725C23.6664 19.3812 24.6717 17.0565 24.7882 14.5H15.3192ZM15.1162 13.5H24.7882C24.6694 10.8925 23.6259 8.52602 21.978 6.72081L15.1162 13.5ZM14.6982 12.5072L21.2705 6.01406C19.5124 4.41238 17.2233 3.38345 14.6982 3.22223V12.5072ZM13.9996 26.4C20.8479 26.4 26.3996 20.8483 26.3996 14C26.3996 7.15167 20.8479 1.6 13.9996 1.6C7.15128 1.6 1.59961 7.15167 1.59961 14C1.59961 20.8483 7.15128 26.4 13.9996 26.4Z" fill="white"/>
</svg>
