<svg width="28" height="24" viewBox="0 0 28 24" fill="none" xmlns="http://www.w3.org/2000/svg">
<path fill-rule="evenodd" clip-rule="evenodd" d="M18.9101 22.2952C24.7413 19.5225 28.3442 13.7945 26.9851 8.1547C28.022 7.54095 28.3116 6.06146 27.627 4.81502C26.9636 3.60705 25.6246 3.05376 24.5647 3.51741C20.9559 -0.508359 14.6515 -1.00112 9.09028 1.64321C2.90876 4.58248 -0.965871 10.6084 1.1286 16.6087C1.10357 16.621 1.07872 16.6339 1.05407 16.6475C-0.0268105 17.2411 -0.325287 18.7743 0.3874 20.072C1.10009 21.3696 2.55406 21.9404 3.63494 21.3468C3.80762 21.2519 3.96034 21.1331 4.09215 20.9951C7.80134 24.1849 13.7776 24.7356 18.9101 22.2952ZM14.0076 6.07556C14.5449 5.94764 14.8767 5.4084 14.7488 4.87113C14.6209 4.33387 14.0816 4.00203 13.5444 4.12995C8.90308 5.23502 5.46211 8.72444 4.2896 10.3598C3.96779 10.8086 4.07077 11.4334 4.51961 11.7552C4.96845 12.077 5.59318 11.974 5.91499 11.5252C6.91806 10.1261 9.99239 7.03157 14.0076 6.07556Z" fill="white"/>
</svg>
