<svg width="16" height="16" viewBox="0 0 16 16" fill="none" xmlns="http://www.w3.org/2000/svg">
<path fill-rule="evenodd" clip-rule="evenodd" d="M8 16C12.4183 16 16 12.4183 16 8C16 3.58172 12.4183 0 8 0C3.58172 0 0 3.58172 0 8C0 12.4183 3.58172 16 8 16ZM6.41422 3.37476C6.06891 3.146 5.60353 3.24047 5.37476 3.58578C5.146 3.93109 5.24047 4.39647 5.58578 4.62524L10.0289 7.56881L5.55241 10.8982C5.22005 11.1454 5.151 11.6152 5.3982 11.9476C5.6454 12.28 6.11522 12.349 6.44759 12.1018L11.7809 8.13513C11.977 7.98933 12.0897 7.75717 12.0831 7.51294C12.0764 7.26872 11.9512 7.04303 11.7476 6.9081L6.41422 3.37476Z" fill="white"/>
</svg>
